PathFileType	4	(X/Y/Z)	C:\Users\dbl\Desktop\20210112\20210112\bx_n_5_502.trc
DataRate	CameraRate	NumFrames	NumMarkers	Units	OrigDataRate	OrigDataStartFrame	OrigNumFrames
50.00	50.00	       4	43	mm	50.00	428	       489
Frame#	Time	Top.Head			R.Acromium			L.Acromium			Sternum			R.ASIS			L.ASIS			V.Sacral			R.Thigh.Upper			R.Thigh.Front			R.Thigh.Rear			R.Knee.Lat			R.Knee.Med			R.Shank.Upper			R.Shank.Front			R.Shank.Rear			R.Ankle.Lat			R.Midfoot.Lat			R.Toe.Lat			R.Toe.Tip			R.Toe.Med			R.Ankle.Med			R.Midfoot.Sup			R.Heel			L.Thigh.Upper			L.Thigh.Front			L.Thigh.Rear			L.Knee.Lat			L.Knee.Med			L.Shank.Upper			L.Shank.Front			L.Shank.Rear			L.Ankle.Lat			L.Midfoot.Lat			L.Toe.Lat			L.Toe.Tip			L.Toe.Med			L.Ankle.Med			L.Midfoot.Sup			L.Heel			origin1 front left			origin2 front right			origin 3 back right			origin 4 back leftt			
		X1	Y1	Z1	X2	Y2	Z2	X3	Y3	Z3	X4	Y4	Z4	X5	Y5	Z5	X6	Y6	Z6	X7	Y7	Z7	X8	Y8	Z8	X9	Y9	Z9	X10	Y10	Z10	X11	Y11	Z11	X12	Y12	Z12	X13	Y13	Z13	X14	Y14	Z14	X15	Y15	Z15	X16	Y16	Z16	X17	Y17	Z17	X18	Y18	Z18	X19	Y19	Z19	X20	Y20	Z20	X21	Y21	Z21	X22	Y22	Z22	X23	Y23	Z23	X24	Y24	Z24	X25	Y25	Z25	X26	Y26	Z26	X27	Y27	Z27	X28	Y28	Z28	X29	Y29	Z29	X30	Y30	Z30	X31	Y31	Z31	X32	Y32	Z32	X33	Y33	Z33	X34	Y34	Z34	X35	Y35	Z35	X36	Y36	Z36	X37	Y37	Z37	X38	Y38	Z38	X39	Y39	Z39	X40	Y40	Z40	X41	Y41	Z41	X42	Y42	Z42	X43	Y43	Z43	

428	8.540	-806.07751	113.91875	1839.48120	-749.92456	-65.24034	1533.12183	-738.36218	295.12094	1535.75293	-629.73779	109.22860	1364.30664	-596.48419	0.89573	1059.99658	-606.69043	249.72861	1071.43201	-799.32611	101.28770	1045.84680	-652.98627	-68.28310	875.22656	-581.10950	4.67628	809.52112	-671.94403	-55.52559	759.85516	-692.33740	-32.51908	618.40375	-681.44733	77.07326	574.63507	-700.03369	-30.15884	569.60303	-653.49292	18.50051	518.97681	-745.61951	-44.67901	490.32712	-756.28601	-22.56290	208.19728	-648.01221	-67.27923	162.34019	-605.49756	-72.16792	160.48656	-548.07098	-26.79420	164.02631	-600.18890	24.60513	170.80214	-716.71094	68.17248	216.91812	-674.85840	51.71418	161.63441	-793.54907	36.14072	174.33379	-683.38452	294.77786	875.02588	-587.06592	228.91998	796.45477	-691.38904	275.70349	745.39679	-723.17010	257.54672	644.62885	-688.66675	151.36165	580.10321	-724.26526	254.89290	577.51434	-671.48358	211.33458	537.37115	-764.27777	264.44852	503.15237	-767.98499	230.50836	204.90991	-659.46277	297.80109	157.31062	-623.20209	306.22681	158.94211	-555.44250	253.86078	163.98332	-592.32343	217.90553	173.56161	-712.23230	156.39191	218.12337	-676.01636	173.86690	159.60918	-796.62817	181.09172	183.83040	-528.05701	304.57947	146.80019	-517.29803	-72.98551	143.57162	-875.89984	-78.70184	141.36681	-882.47510	296.24164	144.78825	
429	8.560	-807.51483	113.65517	1839.03528	-750.76031	-65.64331	1532.93506	-739.42743	294.77136	1535.35486	-630.08679	108.92184	1364.29675	-595.85571	0.36002	1059.99487	-606.03247	249.24541	1071.46973	-798.63647	100.70114	1045.63623	-652.30896	-68.83769	875.18579	-580.53046	4.30744	809.49585	-671.16467	-56.18558	759.92401	-691.70990	-32.97548	618.34436	-681.11151	76.74454	574.55829	-699.72961	-30.46981	569.58130	-653.14594	18.17682	518.80951	-745.35901	-44.97047	490.34494	-756.26514	-22.61057	208.17731	-647.98004	-67.36042	162.27180	-605.46716	-72.22443	160.17342	-548.04736	-26.75958	164.03549	-600.12866	24.65483	170.71860	-716.71655	68.11298	216.83818	-674.85205	51.70812	161.62407	-793.51874	36.11266	174.36124	-682.73798	294.27725	875.00043	-586.47565	228.32056	796.38593	-690.78308	275.22815	745.41431	-722.68359	257.16641	644.66302	-688.12482	150.93292	580.05774	-723.69946	254.41551	577.49219	-671.11206	211.01416	537.34778	-763.85895	264.09399	503.27780	-767.97852	230.40395	204.94817	-659.42419	297.70911	157.33073	-623.17792	306.10565	159.02095	-555.43793	253.84254	164.00101	-592.23517	217.81033	173.53473	-712.21436	156.13313	218.06787	-676.04156	173.86806	159.45671	-796.61841	181.02452	183.84695	-528.04590	304.53455	146.80186	-517.31378	-72.96175	143.54480	-875.89844	-78.70144	141.35928	-882.48541	296.24463	144.78734	
430	8.580	-808.74060	113.42255	1838.63269	-751.43866	-66.04951	1532.75134	-740.45135	294.41144	1534.95374	-630.34729	108.62701	1364.25452	-595.28931	-0.14179	1059.97278	-605.43445	248.78824	1071.50720	-797.99207	100.13511	1045.45154	-651.68390	-69.35587	875.15900	-579.99603	3.94316	809.44293	-670.47253	-56.88456	760.02448	-691.23029	-33.33430	618.16223	-680.83209	76.38837	574.46161	-699.42230	-30.86432	569.61365	-652.92542	17.89233	518.67352	-745.12213	-45.25368	490.36423	-756.28979	-22.64464	208.11380	-647.94916	-67.46134	162.18701	-605.42523	-72.28912	159.79724	-548.02960	-26.70322	164.04808	-600.04346	24.68921	170.65186	-716.72186	68.06497	216.77545	-674.82770	51.69374	161.60416	-793.47333	36.07434	174.38300	-682.19696	293.83453	875.03137	-585.95947	227.85555	796.34412	-690.30920	274.79572	745.44055	-722.30060	256.81326	644.73065	-687.66571	150.49533	580.02295	-723.27728	253.95895	577.53540	-670.81232	210.73102	537.30780	-763.51080	263.69153	503.35657	-767.99176	230.26558	204.98874	-659.41174	297.65085	157.35585	-623.17755	306.01050	159.09135	-555.42853	253.82663	164.01222	-592.15826	217.74503	173.53928	-712.20410	155.89192	218.03293	-676.05524	173.88004	159.35159	-796.59955	180.95680	183.85788	-528.04828	304.50327	146.80301	-517.32867	-72.92857	143.52831	-875.89819	-78.70081	141.35538	-882.49963	296.24008	144.77982	
431	8.600	-809.77142	113.19349	1838.27637	-751.96606	-66.44086	1532.55945	-741.40216	294.03802	1534.55322	-630.52252	108.31136	1364.18103	-594.77551	-0.60891	1059.94849	-604.90155	248.38293	1071.53601	-797.41425	99.59520	1045.32092	-651.11798	-69.80932	875.10577	-579.51746	3.57864	809.36572	-669.91290	-57.53043	760.11731	-690.90289	-33.61484	617.92657	-680.59436	76.03482	574.37073	-699.10919	-31.30775	569.68030	-652.81323	17.65441	518.59406	-744.92444	-45.50915	490.36542	-756.36505	-22.64941	207.98595	-647.92975	-67.57500	162.07504	-605.37323	-72.34824	159.41151	-548.02386	-26.62652	164.05521	-599.94611	24.70219	170.60672	-716.73151	68.02890	216.74742	-674.78839	51.67156	161.58144	-793.42822	36.03122	174.39703	-681.75482	293.47833	875.10144	-585.51697	227.53633	796.32965	-689.96167	274.42145	745.47369	-721.99408	256.45688	644.79816	-687.28442	150.10239	580.01740	-723.00330	253.55692	577.63733	-670.53796	210.45909	537.25061	-763.22784	263.25168	503.39725	-768.01215	230.09566	205.04671	-659.42456	297.60413	157.40863	-623.19019	305.94604	159.14774	-555.41058	253.82033	164.01781	-592.09778	217.68466	173.53769	-712.23071	155.69223	217.99158	-676.06238	173.89413	159.29233	-796.56787	180.88434	183.86617	-528.06177	304.49887	146.80444	-517.33508	-72.90576	143.53595	-875.90155	-78.69995	141.35561	-882.51569	296.22696	144.76646	
